<svg xmlns="http://www.w3.org/2000/svg" width="100.0" height="100.0" viewBox="0.0 0.0 100.0 100.0" fill="none">
<path d="M62.5125 60.4125L65.3125 57.6125L57.6125 49.9125C58.2542 48.9208 58.7792 47.9 59.1875 46.85C59.6542 45.7417 59.8875 44.6042 59.8875 43.4375C59.8875 40.1125 58.75 37.3125 56.475 35.0375C54.2 32.7625 51.4 31.625 48.075 31.625C44.75 31.625 41.95 32.7625 39.675 35.0375C37.4 37.3125 36.2625 40.1125 36.2625 43.4375C36.2625 46.7625 37.4 49.5625 39.675 51.8375C41.95 54.1125 44.75 55.25 48.075 55.25C49.3583 55.25 50.5542 55.0458 51.6625 54.6375C52.8292 54.1708 53.9667 53.6167 55.075 52.975L62.5125 60.4125ZM48.075 50.875C46.0333 50.875 44.2833 50.1458 42.825 48.6875C41.3667 47.2292 40.6375 45.4792 40.6375 43.4375C40.6375 41.3958 41.3667 39.6458 42.825 38.1875C44.2833 36.7292 46.0333 36 48.075 36C50.1167 36 51.8667 36.7292 53.325 38.1875C54.7833 39.6458 55.5125 41.3958 55.5125 43.4375C55.5125 45.4792 54.7833 47.2292 53.325 48.6875C51.8667 50.1458 50.1167 50.875 48.075 50.875ZM20.25 71C18.85 71 17.625 70.475 16.575 69.425C15.525 68.375 15 67.15 15 65.75V23.75C15 22.35 15.525 21.125 16.575 20.075C17.625 19.025 18.85 18.5 20.25 18.5H79.75C81.15 18.5 82.375 19.025 83.425 20.075C84.475 21.125 85 22.35 85 23.75V65.75C85 67.15 84.475 68.375 83.425 69.425C82.375 70.475 81.15 71 79.75 71H20.25ZM20.25 65.75H79.75V23.75H20.25V65.75ZM20.25 65.75V23.75V65.75ZM11.5 81.5V76.25H88.5V81.5H11.5Z" fill="#4285F4" />
</svg>