<svg xmlns="http://www.w3.org/2000/svg" width="100.0" height="100.0" viewBox="0.0 0.0 100.0 100.0" fill="none">
<path d="M50.875 45.975H56.125V38.625H63.475V33.375H56.125V26.025H50.875V33.375H43.525V38.625H50.875V45.975ZM43.525 59.625H63.475V54.375H43.525V59.625ZM30.75 78C29.35 78 28.125 77.475 27.075 76.425C26.025 75.375 25.5 74.15 25.5 72.75V16.75C25.5 15.35 26.025 14.125 27.075 13.075C28.125 12.025 29.35 11.5 30.75 11.5H61.2L81.5 31.8V72.75C81.5 74.15 80.975 75.375 79.925 76.425C78.875 77.475 77.65 78 76.25 78H30.75ZM30.75 72.75H76.25V34.075L58.575 16.75H30.75V72.75ZM20.25 88.5C18.85 88.5 17.625 87.975 16.575 86.925C15.525 85.875 15 84.65 15 83.25V29.0875H20.25V83.25H63.825V88.5H20.25ZM30.75 72.75V16.75V34.075V72.75Z" fill="#4285F4" />
</svg>