<svg xmlns="http://www.w3.org/2000/svg" width="100.0" height="100.0" viewBox="0.0 0.0 100.0 100.0" fill="none">
<path d="M25.5 88.5V85C25.5 76.8333 27.3958 70.2417 31.1875 65.225C34.9792 60.2083 39.9083 55.1333 45.975 50C39.9083 44.8667 34.9792 39.7917 31.1875 34.775C27.3958 29.7583 25.5 23.1667 25.5 15V11.5H30.75V15C30.75 15.6417 30.75 16.2542 30.75 16.8375C30.8083 17.3625 30.8667 17.9167 30.925 18.5H69.075C69.1333 17.9167 69.1625 17.3625 69.1625 16.8375C69.2208 16.2542 69.25 15.6417 69.25 15V11.5H74.5V15C74.5 23.1667 72.6042 29.7583 68.8125 34.775C65.0208 39.7917 60.0917 44.8667 54.025 50C60.0917 55.1333 65.0208 60.2083 68.8125 65.225C72.6042 70.2417 74.5 76.8333 74.5 85V88.5H69.25V85C69.25 84.3583 69.2208 83.775 69.1625 83.25C69.1625 82.6667 69.1333 82.0833 69.075 81.5H30.925C30.8667 82.0833 30.8083 82.6667 30.75 83.25C30.75 83.775 30.75 84.3583 30.75 85V88.5H25.5ZM36 32.5H64C64.9333 31.1583 65.7208 29.7875 66.3625 28.3875C67.0625 26.9292 67.6458 25.3833 68.1125 23.75H31.8875C32.3542 25.3833 32.9083 26.9292 33.55 28.3875C34.25 29.7875 35.0667 31.1583 36 32.5ZM50 46.5875C51.8083 45.0708 53.5292 43.6125 55.1625 42.2125C56.7958 40.7542 58.3125 39.2667 59.7125 37.75H40.2875C41.6875 39.2667 43.175 40.7542 44.75 42.2125C46.3833 43.6125 48.1333 45.0708 50 46.5875ZM40.2875 62.25H59.7125C58.3125 60.7333 56.7958 59.275 55.1625 57.875C53.5292 56.4167 51.8083 54.9292 50 53.4125C48.1917 54.9292 46.4708 56.4167 44.8375 57.875C43.2042 59.275 41.6875 60.7333 40.2875 62.25ZM31.8875 76.25H68.1125C67.6458 74.6167 67.0625 73.1 66.3625 71.7C65.7208 70.2417 64.9333 68.8417 64 67.5H36C35.0667 68.8417 34.25 70.2417 33.55 71.7C32.9083 73.1 32.3542 74.6167 31.8875 76.25Z" fill="#4285F4" />
</svg>