<svg xmlns="http://www.w3.org/2000/svg" width="100.0" height="100.0" viewBox="0.0 0.0 100.0 100.0" fill="none">
<path d="M48.5908 13.1733C65.3309 13.1734 79.3566 24.7874 83.0547 40.397C85.6282 40.8562 87.5818 43.1036 87.582 45.8091C87.582 48.1994 86.0568 50.2324 83.9268 50.9907C82.7954 67.9089 69.7874 81.5736 53.166 83.7173C52.4703 85.957 50.3826 87.5843 47.9141 87.5845C45.3677 87.5845 43.2259 85.8534 42.5996 83.5044C25.8918 80.6576 13.1719 66.1113 13.1719 48.5923C13.1719 40.4076 15.9493 32.8721 20.6113 26.8745C20.393 26.282 20.2734 25.6414 20.2734 24.9731C20.2735 21.9357 22.736 19.4733 25.7734 19.4731C26.5082 19.4731 27.2089 19.6189 27.8496 19.8804C33.6796 15.6614 40.8444 13.1734 48.5908 13.1733ZM44.998 70.4829C42.8406 71.6937 40.7303 72.6955 38.7119 73.4673C36.6356 74.2612 34.61 74.827 32.6982 75.1167C35.9062 77.043 39.4917 78.4035 43.3184 79.061C44.302 77.5688 45.9932 76.5845 47.9141 76.5845C49.9141 76.5846 51.6645 77.652 52.627 79.2485C55.8027 78.8345 58.8259 77.9373 61.623 76.6353C59.954 76.4778 58.2416 76.1502 56.5254 75.6743C52.8051 74.6427 48.8848 72.8842 44.998 70.4829ZM68.9395 48.8745C66.2937 52.5585 63.0238 56.2961 59.249 59.8501C56.0049 62.9045 52.6455 65.5803 49.3271 67.811C52.2185 69.4184 55.064 70.6055 57.7354 71.3462C63.981 73.0779 68.6677 72.2491 71.1953 69.6099C73.7227 66.9705 74.3352 62.2673 72.3066 56.1323C71.5365 53.8034 70.4051 51.3551 68.9395 48.8745ZM28.2617 55.2183C27.6677 56.2726 27.143 57.3038 26.6914 58.3032C25.4307 61.0933 24.7849 63.5313 24.7031 65.4829C24.6219 67.4247 25.0975 68.6919 25.8467 69.4819C26.596 70.2718 27.838 70.8161 29.7881 70.8452C31.7484 70.8744 34.2283 70.3703 37.0957 69.2739C38.2872 68.8183 39.5262 68.266 40.8008 67.6245C39.2991 66.505 37.8154 65.2918 36.3643 63.9888C35.804 64.1811 35.2036 64.2876 34.5781 64.2876C31.5406 64.2876 29.0781 61.8251 29.0781 58.7876C29.0781 58.069 29.2161 57.3827 29.4668 56.7534C29.0534 56.2441 28.6515 55.7322 28.2617 55.2183ZM52.0381 31.1421C48.2676 33.4492 44.3176 36.455 40.4844 40.064C36.6262 43.6964 33.3741 47.4816 30.8418 51.1235C31.4304 51.9547 32.0554 52.7848 32.7158 53.6108C33.2974 53.4016 33.9245 53.2876 34.5781 53.2876C37.6156 53.2877 40.0781 55.7501 40.0781 58.7876C40.0781 59.5348 39.9271 60.2465 39.6572 60.896C41.448 62.4845 43.2777 63.9168 45.1143 65.186C48.728 62.9235 52.4938 60.029 56.1523 56.5845C60.2561 52.7207 63.673 48.6837 66.2686 44.8306C65.5988 43.9164 64.8841 43.0054 64.1279 42.1001C63.6081 42.2629 63.0549 42.3511 62.4814 42.3511C59.4441 42.3508 56.9814 39.8885 56.9814 36.8511C56.9815 36.2532 57.0785 35.678 57.2549 35.1392C55.538 33.6623 53.7903 32.3273 52.0381 31.1421ZM19.8525 37.1655C18.4458 40.7004 17.6719 44.556 17.6719 48.5923C17.6719 53.3624 18.7525 57.8803 20.6816 61.9146C21.0897 60.1592 21.7375 58.3244 22.5811 56.4575C23.3591 54.7358 24.3172 52.9533 25.4414 51.1401C23.5005 48.0366 22.0071 44.917 21.0127 41.9097C20.4871 40.3203 20.0937 38.7283 19.8525 37.1655ZM76.0391 34.3491C75.6392 36.2206 74.9612 38.188 74.0557 40.1919C73.3894 41.6662 72.5887 43.1836 71.667 44.728C73.8477 48.084 75.5104 51.4705 76.5869 54.7261C77.0685 56.1826 77.4401 57.6412 77.6846 59.0776C78.6448 56.4137 79.2483 53.5805 79.4404 50.6343C77.7371 49.6996 76.582 47.8891 76.582 45.8091C76.5822 44.053 77.406 42.4898 78.6875 41.4829C78.0969 38.973 77.1999 36.5816 76.0391 34.3491ZM39.8652 25.2886C36.5177 24.3604 33.6181 24.1685 31.2588 24.5962C31.2672 24.7208 31.2734 24.8464 31.2734 24.9731C31.2734 28.0107 28.811 30.4731 25.7734 30.4731C25.3506 30.4731 24.9394 30.4238 24.5439 30.3335C23.765 32.963 23.943 36.4149 25.2949 40.5034C25.9894 42.6035 26.9757 44.8013 28.2373 47.0317C30.7834 43.5894 33.8663 40.1148 37.3877 36.7993C40.7769 33.6083 44.2902 30.8282 47.7529 28.5396C45.041 27.0761 42.3762 25.9848 39.8652 25.2886ZM66.8477 25.8042C64.8873 25.7751 62.4073 26.2791 59.54 27.3755C58.5324 27.7608 57.4904 28.2142 56.4219 28.7329C57.7247 29.6886 59.0151 30.7147 60.2832 31.8091C60.9566 31.515 61.7006 31.3511 62.4824 31.3511C65.5198 31.3513 67.9814 33.8146 67.9814 36.8521C67.9814 37.6574 67.8072 38.4216 67.4961 39.1108C67.9363 39.6353 68.3641 40.1628 68.7793 40.6929C69.209 39.8944 69.5995 39.1114 69.9453 38.3462C71.2062 35.5558 71.8519 33.1173 71.9336 31.1655C72.0148 29.224 71.5391 27.9575 70.79 27.1675C70.0407 26.3776 68.7979 25.8333 66.8477 25.8042ZM48.5908 17.6733C44.3522 17.6734 40.3127 18.5262 36.6348 20.0698C38.0943 20.2454 39.5829 20.5479 41.0742 20.9614C44.6518 21.9534 48.4136 23.6188 52.1533 25.8804C54.1315 24.7971 56.0665 23.8923 57.9238 23.1821C59.8916 22.4297 61.8138 21.8788 63.6367 21.5767C59.1835 19.0912 54.0528 17.6734 48.5908 17.6733Z" fill="#4285F4" />
</svg>