<svg xmlns="http://www.w3.org/2000/svg" width="100.0" height="100.0" viewBox="0.0 0.0 100.0 100.0" fill="none">
<path d="M18.5875 58.6625C18.0625 58.6625 17.625 58.4875 17.275 58.1375C16.925 57.7875 16.75 57.35 16.75 56.825C16.75 56.3 16.925 55.8625 17.275 55.5125C17.625 55.1625 18.0625 54.9875 18.5875 54.9875C19.1125 54.9875 19.55 55.1625 19.9 55.5125C20.25 55.8625 20.425 56.3 20.425 56.825C20.425 57.35 20.25 57.7875 19.9 58.1375C19.55 58.4875 19.1125 58.6625 18.5875 58.6625ZM18.5875 45.0125C18.0625 45.0125 17.625 44.8375 17.275 44.4875C16.925 44.1375 16.75 43.7 16.75 43.175C16.75 42.65 16.925 42.2125 17.275 41.8625C17.625 41.5125 18.0625 41.3375 18.5875 41.3375C19.1125 41.3375 19.55 41.5125 19.9 41.8625C20.25 42.2125 20.425 42.65 20.425 43.175C20.425 43.7 20.25 44.1375 19.9 44.4875C19.55 44.8375 19.1125 45.0125 18.5875 45.0125ZM29 74.325C28.0667 74.325 27.2792 74.0042 26.6375 73.3625C25.9958 72.7208 25.675 71.9333 25.675 71C25.675 70.0667 25.9958 69.2792 26.6375 68.6375C27.2792 67.9958 28.0667 67.675 29 67.675C29.9333 67.675 30.7208 67.9958 31.3625 68.6375C32.0042 69.2792 32.325 70.0667 32.325 71C32.325 71.9333 32.0042 72.7208 31.3625 73.3625C30.7208 74.0042 29.9333 74.325 29 74.325ZM29 60.15C28.0667 60.15 27.2792 59.8292 26.6375 59.1875C25.9958 58.5458 25.675 57.7583 25.675 56.825C25.675 55.8917 25.9958 55.1042 26.6375 54.4625C27.2792 53.8208 28.0667 53.5 29 53.5C29.9333 53.5 30.7208 53.8208 31.3625 54.4625C32.0042 55.1042 32.325 55.8917 32.325 56.825C32.325 57.7583 32.0042 58.5458 31.3625 59.1875C30.7208 59.8292 29.9333 60.15 29 60.15ZM29 46.5C28.0667 46.5 27.2792 46.1792 26.6375 45.5375C25.9958 44.8958 25.675 44.1083 25.675 43.175C25.675 42.2417 25.9958 41.4542 26.6375 40.8125C27.2792 40.1708 28.0667 39.85 29 39.85C29.9333 39.85 30.7208 40.1708 31.3625 40.8125C32.0042 41.4542 32.325 42.2417 32.325 43.175C32.325 44.1083 32.0042 44.8958 31.3625 45.5375C30.7208 46.1792 29.9333 46.5 29 46.5ZM29 32.325C28.0667 32.325 27.2792 32.0042 26.6375 31.3625C25.9958 30.7208 25.675 29.9333 25.675 29C25.675 28.0667 25.9958 27.2792 26.6375 26.6375C27.2792 25.9958 28.0667 25.675 29 25.675C29.9333 25.675 30.7208 25.9958 31.3625 26.6375C32.0042 27.2792 32.325 28.0667 32.325 29C32.325 29.9333 32.0042 30.7208 31.3625 31.3625C30.7208 32.0042 29.9333 32.325 29 32.325ZM43.175 61.55C41.8333 61.55 40.6958 61.1125 39.7625 60.2375C38.8875 59.3042 38.45 58.1667 38.45 56.825C38.45 55.5417 38.8875 54.4333 39.7625 53.5C40.6958 52.5667 41.8333 52.1 43.175 52.1C44.4583 52.1 45.5667 52.5667 46.5 53.5C47.4333 54.4333 47.9 55.5417 47.9 56.825C47.9 58.1667 47.4333 59.3042 46.5 60.2375C45.5667 61.1125 44.4583 61.55 43.175 61.55ZM43.175 47.9C41.8333 47.9 40.6958 47.4625 39.7625 46.5875C38.8875 45.6542 38.45 44.5167 38.45 43.175C38.45 41.8917 38.8875 40.7833 39.7625 39.85C40.6958 38.9167 41.8333 38.45 43.175 38.45C44.4583 38.45 45.5667 38.9167 46.5 39.85C47.4333 40.7833 47.9 41.8917 47.9 43.175C47.9 44.5167 47.4333 45.6542 46.5 46.5875C45.5667 47.4625 44.4583 47.9 43.175 47.9ZM43.175 74.325C42.2417 74.325 41.4542 74.0042 40.8125 73.3625C40.1708 72.7208 39.85 71.9333 39.85 71C39.85 70.0667 40.1708 69.2792 40.8125 68.6375C41.4542 67.9958 42.2417 67.675 43.175 67.675C44.1083 67.675 44.8958 67.9958 45.5375 68.6375C46.1792 69.2792 46.5 70.0667 46.5 71C46.5 71.9333 46.1792 72.7208 45.5375 73.3625C44.8958 74.0042 44.1083 74.325 43.175 74.325ZM43.175 32.325C42.2417 32.325 41.4542 32.0042 40.8125 31.3625C40.1708 30.7208 39.85 29.9333 39.85 29C39.85 28.0667 40.1708 27.2792 40.8125 26.6375C41.4542 25.9958 42.2417 25.675 43.175 25.675C44.1083 25.675 44.8958 25.9958 45.5375 26.6375C46.1792 27.2792 46.5 28.0667 46.5 29C46.5 29.9333 46.1792 30.7208 45.5375 31.3625C44.8958 32.0042 44.1083 32.325 43.175 32.325ZM43.175 83.25C42.65 83.25 42.2125 83.075 41.8625 82.725C41.5125 82.375 41.3375 81.9375 41.3375 81.4125C41.3375 80.8875 41.5125 80.45 41.8625 80.1C42.2125 79.75 42.65 79.575 43.175 79.575C43.7 79.575 44.1375 79.75 44.4875 80.1C44.8375 80.45 45.0125 80.8875 45.0125 81.4125C45.0125 81.9375 44.8375 82.375 44.4875 82.725C44.1375 83.075 43.7 83.25 43.175 83.25ZM43.175 20.425C42.65 20.425 42.2125 20.25 41.8625 19.9C41.5125 19.55 41.3375 19.1125 41.3375 18.5875C41.3375 18.0625 41.5125 17.625 41.8625 17.275C42.2125 16.925 42.65 16.75 43.175 16.75C43.7 16.75 44.1375 16.925 44.4875 17.275C44.8375 17.625 45.0125 18.0625 45.0125 18.5875C45.0125 19.1125 44.8375 19.55 44.4875 19.9C44.1375 20.25 43.7 20.425 43.175 20.425ZM56.825 61.55C55.4833 61.55 54.3458 61.1125 53.4125 60.2375C52.5375 59.3042 52.1 58.1667 52.1 56.825C52.1 55.5417 52.5375 54.4333 53.4125 53.5C54.3458 52.5667 55.4833 52.1 56.825 52.1C58.1083 52.1 59.2167 52.5667 60.15 53.5C61.0833 54.4333 61.55 55.5417 61.55 56.825C61.55 58.1667 61.0833 59.3042 60.15 60.2375C59.2167 61.1125 58.1083 61.55 56.825 61.55ZM56.825 47.9C55.4833 47.9 54.3458 47.4625 53.4125 46.5875C52.5375 45.6542 52.1 44.5167 52.1 43.175C52.1 41.8917 52.5375 40.7833 53.4125 39.85C54.3458 38.9167 55.4833 38.45 56.825 38.45C58.1083 38.45 59.2167 38.9167 60.15 39.85C61.0833 40.7833 61.55 41.8917 61.55 43.175C61.55 44.5167 61.0833 45.6542 60.15 46.5875C59.2167 47.4625 58.1083 47.9 56.825 47.9ZM56.825 74.325C55.8917 74.325 55.1042 74.0042 54.4625 73.3625C53.8208 72.7208 53.5 71.9333 53.5 71C53.5 70.0667 53.8208 69.2792 54.4625 68.6375C55.1042 67.9958 55.8917 67.675 56.825 67.675C57.7583 67.675 58.5458 67.9958 59.1875 68.6375C59.8292 69.2792 60.15 70.0667 60.15 71C60.15 71.9333 59.8292 72.7208 59.1875 73.3625C58.5458 74.0042 57.7583 74.325 56.825 74.325ZM56.825 32.325C55.8917 32.325 55.1042 32.0042 54.4625 31.3625C53.8208 30.7208 53.5 29.9333 53.5 29C53.5 28.0667 53.8208 27.2792 54.4625 26.6375C55.1042 25.9958 55.8917 25.675 56.825 25.675C57.7583 25.675 58.5458 25.9958 59.1875 26.6375C59.8292 27.2792 60.15 28.0667 60.15 29C60.15 29.9333 59.8292 30.7208 59.1875 31.3625C58.5458 32.0042 57.7583 32.325 56.825 32.325ZM57.35 83.25C56.825 83.25 56.3875 83.075 56.0375 82.725C55.6875 82.375 55.5125 81.9375 55.5125 81.4125C55.5125 80.8875 55.6875 80.45 56.0375 80.1C56.3875 79.75 56.825 79.575 57.35 79.575C57.875 79.575 58.3125 79.75 58.6625 80.1C59.0125 80.45 59.1875 80.8875 59.1875 81.4125C59.1875 81.9375 59.0125 82.375 58.6625 82.725C58.3125 83.075 57.875 83.25 57.35 83.25ZM56.825 20.425C56.3 20.425 55.8625 20.25 55.5125 19.9C55.1625 19.55 54.9875 19.1125 54.9875 18.5875C54.9875 18.0625 55.1625 17.625 55.5125 17.275C55.8625 16.925 56.3 16.75 56.825 16.75C57.35 16.75 57.7875 16.925 58.1375 17.275C58.4875 17.625 58.6625 18.0625 58.6625 18.5875C58.6625 19.1125 58.4875 19.55 58.1375 19.9C57.7875 20.25 57.35 20.425 56.825 20.425ZM71 74.325C70.0667 74.325 69.2792 74.0042 68.6375 73.3625C67.9958 72.7208 67.675 71.9333 67.675 71C67.675 70.0667 67.9958 69.2792 68.6375 68.6375C69.2792 67.9958 70.0667 67.675 71 67.675C71.9333 67.675 72.7208 67.9958 73.3625 68.6375C74.0042 69.2792 74.325 70.0667 74.325 71C74.325 71.9333 74.0042 72.7208 73.3625 73.3625C72.7208 74.0042 71.9333 74.325 71 74.325ZM71 60.15C70.0667 60.15 69.2792 59.8292 68.6375 59.1875C67.9958 58.5458 67.675 57.7583 67.675 56.825C67.675 55.8917 67.9958 55.1042 68.6375 54.4625C69.2792 53.8208 70.0667 53.5 71 53.5C71.9333 53.5 72.7208 53.8208 73.3625 54.4625C74.0042 55.1042 74.325 55.8917 74.325 56.825C74.325 57.7583 74.0042 58.5458 73.3625 59.1875C72.7208 59.8292 71.9333 60.15 71 60.15ZM71 46.5C70.0667 46.5 69.2792 46.1792 68.6375 45.5375C67.9958 44.8958 67.675 44.1083 67.675 43.175C67.675 42.2417 67.9958 41.4542 68.6375 40.8125C69.2792 40.1708 70.0667 39.85 71 39.85C71.9333 39.85 72.7208 40.1708 73.3625 40.8125C74.0042 41.4542 74.325 42.2417 74.325 43.175C74.325 44.1083 74.0042 44.8958 73.3625 45.5375C72.7208 46.1792 71.9333 46.5 71 46.5ZM71 32.325C70.0667 32.325 69.2792 32.0042 68.6375 31.3625C67.9958 30.7208 67.675 29.9333 67.675 29C67.675 28.0667 67.9958 27.2792 68.6375 26.6375C69.2792 25.9958 70.0667 25.675 71 25.675C71.9333 25.675 72.7208 25.9958 73.3625 26.6375C74.0042 27.2792 74.325 28.0667 74.325 29C74.325 29.9333 74.0042 30.7208 73.3625 31.3625C72.7208 32.0042 71.9333 32.325 71 32.325ZM81.4125 58.6625C80.8875 58.6625 80.45 58.4875 80.1 58.1375C79.75 57.7875 79.575 57.35 79.575 56.825C79.575 56.3 79.75 55.8625 80.1 55.5125C80.45 55.1625 80.8875 54.9875 81.4125 54.9875C81.9375 54.9875 82.375 55.1625 82.725 55.5125C83.075 55.8625 83.25 56.3 83.25 56.825C83.25 57.35 83.075 57.7875 82.725 58.1375C82.375 58.4875 81.9375 58.6625 81.4125 58.6625ZM81.4125 45.0125C80.8875 45.0125 80.45 44.8375 80.1 44.4875C79.75 44.1375 79.575 43.7 79.575 43.175C79.575 42.65 79.75 42.2125 80.1 41.8625C80.45 41.5125 80.8875 41.3375 81.4125 41.3375C81.9375 41.3375 82.375 41.5125 82.725 41.8625C83.075 42.2125 83.25 42.65 83.25 43.175C83.25 43.7 83.075 44.1375 82.725 44.4875C82.375 44.8375 81.9375 45.0125 81.4125 45.0125Z" fill="#4285F4" />
</svg>