<svg xmlns="http://www.w3.org/2000/svg" width="100.0" height="100.0" viewBox="0.0 0.0 100.0 100.0" fill="none">
<path fill-rule="evenodd" clip-rule="evenodd" d="M26.9185 54.0557C31.2354 55.9156 35.0212 58.3826 38.2761 61.4566C41.531 64.5307 44.143 68.1062 46.1124 72.1832C46.2667 72.5028 46.4171 72.8255 46.5636 73.1512C48.6436 77.6326 49.6836 82.4209 49.6836 87.5162C49.6836 82.4209 50.6911 77.6326 52.7061 73.1512C52.8579 72.8242 53.0135 72.5003 53.1729 72.1794C55.1979 68.104 57.8373 64.5297 61.0911 61.4566C64.346 58.3826 68.1318 55.9156 72.4487 54.0557C72.7871 53.9099 73.1287 53.7679 73.4736 53.6296C78.2186 51.6651 83.2886 50.6829 88.6836 50.6829C83.2886 50.6829 78.2186 49.7314 73.4736 47.8283C73.1273 47.6849 72.7843 47.538 72.4446 47.3874C68.1295 45.475 64.345 42.9822 61.0911 39.9091C57.8373 36.8361 55.1979 33.2618 53.1729 29.1863C53.0135 28.8655 52.8579 28.5416 52.7061 28.2145C50.6911 23.7332 49.6836 18.9448 49.6836 13.8495C49.6836 18.9448 48.6436 23.7332 46.5636 28.2145C46.4171 28.5403 46.2667 28.8629 46.1124 29.1825C44.143 33.2596 41.531 36.8351 38.2761 39.9091C35.0222 42.9822 31.2377 45.475 26.9226 47.3874C26.5829 47.538 26.2399 47.6849 25.8936 47.8283C21.1486 49.7314 16.0786 50.6829 10.6836 50.6829C16.0786 50.6829 21.1486 51.6651 25.8936 53.6296C26.2385 53.7679 26.5801 53.9099 26.9185 54.0557ZM34.1338 50.7017C37.3251 52.495 40.2431 54.6327 42.8723 57.1158C45.5015 59.5989 47.7649 62.3548 49.6637 65.3688C51.5886 62.3555 53.865 59.5996 56.4949 57.1158C59.1241 54.6327 62.0421 52.495 65.2334 50.7017C62.0428 48.8837 59.1248 46.7338 56.4949 44.25C53.865 41.7662 51.5886 39.0103 49.6637 35.997C47.7649 39.0109 45.5015 41.7669 42.8723 44.25C40.2424 46.7338 37.3244 48.8837 34.1338 50.7017Z" fill="#4285F4" />
</svg>