<svg xmlns="http://www.w3.org/2000/svg" width="100.0" height="100.0" viewBox="0.0 0.0 100.0 100.0" fill="none">
<rect width="100" height="100" fill="#19191A" />
<rect width="100" height="100" fill="url(#paint0_linear_2372_6625)" fill-opacity="0.2" />
<path d="M32.5 71.0001C31.5667 71.0001 30.75 70.6501 30.05 69.9501C29.35 69.2501 29 68.4334 29 67.5001V32.5001C29 31.5667 29.35 30.7501 30.05 30.0501C30.75 29.3501 31.5667 29.0001 32.5 29.0001H53.5V32.5001H32.5V67.5001H67.5V46.5001H71V67.5001C71 68.4334 70.65 69.2501 69.95 69.9501C69.25 70.6501 68.4333 71.0001 67.5 71.0001H32.5ZM35.7667 61.8418L42.5917 52.9751L48.0167 60.3834L55.7167 50.4084L64.2917 61.8418H35.7667ZM62.8333 49.4167C62.8333 45.9945 61.6472 43.0973 59.275 40.7251C56.9028 38.3529 54.0056 37.1667 50.5833 37.1667C54.0056 37.1667 56.9028 35.9806 59.275 33.6084C61.6472 31.2362 62.8333 28.339 62.8333 24.9167C62.8333 28.339 64.0194 31.2362 66.3917 33.6084C68.7639 35.9806 71.6611 37.1667 75.0833 37.1667C71.6611 37.1667 68.7639 38.3529 66.3917 40.7251C64.0194 43.0973 62.8333 45.9945 62.8333 49.4167Z" fill="#5F6368" />
<path d="M32.5 71.0001C31.5667 71.0001 30.75 70.6501 30.05 69.9501C29.35 69.2501 29 68.4334 29 67.5001V32.5001C29 31.5667 29.35 30.7501 30.05 30.0501C30.75 29.3501 31.5667 29.0001 32.5 29.0001H53.5V32.5001H32.5V67.5001H67.5V46.5001H71V67.5001C71 68.4334 70.65 69.2501 69.95 69.9501C69.25 70.6501 68.4333 71.0001 67.5 71.0001H32.5ZM35.7667 61.8418L42.5917 52.9751L48.0167 60.3834L55.7167 50.4084L64.2917 61.8418H35.7667ZM62.8333 49.4167C62.8333 45.9945 61.6472 43.0973 59.275 40.7251C56.9028 38.3529 54.0056 37.1667 50.5833 37.1667C54.0056 37.1667 56.9028 35.9806 59.275 33.6084C61.6472 31.2362 62.8333 28.339 62.8333 24.9167C62.8333 28.339 64.0194 31.2362 66.3917 33.6084C68.7639 35.9806 71.6611 37.1667 75.0833 37.1667C71.6611 37.1667 68.7639 38.3529 66.3917 40.7251C64.0194 43.0973 62.8333 45.9945 62.8333 49.4167Z" fill="url(#paint1_linear_2372_6625)" />
<defs>
<linearGradient id="paint0_linear_2372_6625" x1="50" y1="0" x2="50" y2="100" gradientUnits="userSpaceOnUse">
<stop stop-color="#19191A" stop-opacity="0" />
<stop offset="1" stop-color="#0056CF" />
</linearGradient>
<linearGradient id="paint1_linear_2372_6625" x1="35.6744" y1="64.3257" x2="64.1085" y2="36.1086" gradientUnits="userSpaceOnUse">
<stop stop-color="#446EFF" />
<stop offset="0.366609" stop-color="#2E96FF" />
<stop offset="0.832213" stop-color="#B1C5FF" />
</linearGradient>
</defs>
</svg>