<svg xmlns="http://www.w3.org/2000/svg" width="100.0" height="100.0" viewBox="0.0 0.0 100.0 100.0" fill="none">
<rect width="100" height="100" fill="#19191A" />
<rect width="100" height="100" fill="url(#paint0_linear_2372_6627)" fill-opacity="0.2" />
<path d="M44.7494 73.3333V31.3333H48.2494V73.3333H44.7494ZM54.6077 63.9999V40.6666H58.1077V63.9999H54.6077ZM34.7743 59.3333V45.3333H38.2743V59.3333H34.7743ZM62.8327 56.9999V47.6666H66.3327V56.9999H62.8327ZM65.866 43.9333C65.866 41.2499 64.8938 38.9555 62.9494 37.0499C61.0438 35.1055 58.7493 34.1333 56.066 34.1333C58.7493 34.1333 61.0438 33.1805 62.9494 31.2749C64.8938 29.3694 65.866 27.0555 65.866 24.3333C65.866 27.0555 66.8188 29.3694 68.7243 31.2749C70.6299 33.1805 72.9438 34.1333 75.666 34.1333C72.9438 34.1333 70.6299 35.1055 68.7243 37.0499C66.8188 38.9555 65.866 41.2499 65.866 43.9333ZM24.916 54.0833V50.5833H28.416V54.0833H24.916Z" fill="#5F6368" />
<path d="M44.7494 73.3333V31.3333H48.2494V73.3333H44.7494ZM54.6077 63.9999V40.6666H58.1077V63.9999H54.6077ZM34.7743 59.3333V45.3333H38.2743V59.3333H34.7743ZM62.8327 56.9999V47.6666H66.3327V56.9999H62.8327ZM65.866 43.9333C65.866 41.2499 64.8938 38.9555 62.9494 37.0499C61.0438 35.1055 58.7493 34.1333 56.066 34.1333C58.7493 34.1333 61.0438 33.1805 62.9494 31.2749C64.8938 29.3694 65.866 27.0555 65.866 24.3333C65.866 27.0555 66.8188 29.3694 68.7243 31.2749C70.6299 33.1805 72.9438 34.1333 75.666 34.1333C72.9438 34.1333 70.6299 35.1055 68.7243 37.0499C66.8188 38.9555 65.866 41.2499 65.866 43.9333ZM24.916 54.0833V50.5833H28.416V54.0833H24.916Z" fill="url(#paint1_linear_2372_6627)" />
<defs>
<linearGradient id="paint0_linear_2372_6627" x1="50" y1="0" x2="50" y2="100" gradientUnits="userSpaceOnUse">
<stop stop-color="#19191A" stop-opacity="0" />
<stop offset="1" stop-color="#0056CF" />
</linearGradient>
<linearGradient id="paint1_linear_2372_6627" x1="35.6738" y1="64.3255" x2="64.1079" y2="36.1084" gradientUnits="userSpaceOnUse">
<stop stop-color="#446EFF" />
<stop offset="0.366609" stop-color="#2E96FF" />
<stop offset="0.832213" stop-color="#B1C5FF" />
</linearGradient>
</defs>
</svg>