<svg xmlns="http://www.w3.org/2000/svg" width="24.0" height="24.0" viewBox="0.0 0.0 24.0 24.0" fill="none">
<path d="M9.52448 20.9833V5.03333H11.2661V20.9833H9.52448ZM13.2828 17.5V8.51666H15.0245V17.5H13.2828ZM5.76615 15.4833V10.5333H7.50781V15.4833H5.76615ZM17.0411 14.75V11.2667H18.7828V14.75H17.0411ZM18.0036 9.98333C18.0036 8.88333 17.6141 7.94375 16.8349 7.16458C16.0557 6.38541 15.1161 5.99583 14.0161 5.99583C15.1161 5.99583 16.0557 5.61389 16.8349 4.85C17.6141 4.07083 18.0036 3.12361 18.0036 2.00833C18.0036 3.12361 18.3856 4.07083 19.1495 4.85C19.9286 5.61389 20.8759 5.99583 21.9911 5.99583C20.8759 5.99583 19.9286 6.38541 19.1495 7.16458C18.3856 7.94375 18.0036 8.88333 18.0036 9.98333ZM2.00781 13.8792V12.1375H3.74948V13.8792H2.00781Z" fill="white" />
</svg>