<svg xmlns="http://www.w3.org/2000/svg" width="100.0" height="100.0" viewBox="0.0 0.0 100.0 100.0" fill="none">
<path d="M36 65.75V60.5H45.625C45.3333 61.3167 45.1292 62.1625 45.0125 63.0375C44.8958 63.9125 44.8083 64.8167 44.75 65.75H36ZM36 85C31.1583 85 27.0167 83.3083 23.575 79.925C20.1917 76.4833 18.5 72.3417 18.5 67.5V36C16.575 36 14.9125 35.3292 13.5125 33.9875C12.1708 32.5875 11.5 30.925 11.5 29V22C11.5 20.075 12.1708 18.4417 13.5125 17.1C14.9125 15.7 16.575 15 18.5 15H53.5C55.425 15 57.0583 15.7 58.4 17.1C59.8 18.4417 60.5 20.075 60.5 22V29C60.5 30.925 59.8 32.5875 58.4 33.9875C57.0583 35.3292 55.425 36 53.5 36V49.125C52.975 49.5333 52.4792 49.9708 52.0125 50.4375C51.5458 50.8458 51.0792 51.2833 50.6125 51.75H36V46.5H48.25V36H23.75V67.5C23.75 70.8833 24.9458 73.7708 27.3375 76.1625C29.7292 78.5542 32.6167 79.75 36 79.75C38.1 79.75 40.025 79.2542 41.775 78.2625C43.5833 77.2708 45.0417 75.9583 46.15 74.325C46.5 75.2583 46.8792 76.1333 47.2875 76.95C47.7542 77.7667 48.2792 78.5833 48.8625 79.4C47.2292 81.15 45.3042 82.5208 43.0875 83.5125C40.9292 84.5042 38.5667 85 36 85ZM16.75 30.75H55.25V20.25H16.75V30.75ZM66.625 76.25C69.3083 76.25 71.5833 75.3167 73.45 73.45C75.3167 71.5833 76.25 69.3083 76.25 66.625C76.25 63.9417 75.3167 61.6667 73.45 59.8C71.5833 57.9333 69.3083 57 66.625 57C63.9417 57 61.6667 57.9333 59.8 59.8C57.9333 61.6667 57 63.9417 57 66.625C57 69.3083 57.9333 71.5833 59.8 73.45C61.6667 75.3167 63.9417 76.25 66.625 76.25ZM84.475 88.15L75.1125 78.7875C73.8292 79.6625 72.4583 80.3333 71 80.8C69.6 81.2667 68.1417 81.5 66.625 81.5C62.4833 81.5 58.9542 80.0708 56.0375 77.2125C53.1792 74.2958 51.75 70.7667 51.75 66.625C51.75 62.4833 53.1792 58.9833 56.0375 56.125C58.9542 53.2083 62.4833 51.75 66.625 51.75C70.7667 51.75 74.2667 53.2083 77.125 56.125C80.0417 58.9833 81.5 62.4833 81.5 66.625C81.5 68.1417 81.2667 69.6292 80.8 71.0875C80.3333 72.4875 79.6625 73.8292 78.7875 75.1125L88.15 84.475L84.475 88.15ZM16.75 30.75V20.25V30.75Z" fill="#4285F4" />
</svg>