<svg xmlns="http://www.w3.org/2000/svg" width="100.0" height="100.0" viewBox="0.0 0.0 100.0 100.0" fill="none">
<path d="M50 84.9125C41.8333 82.8708 35.125 78.1458 29.875 70.7375C24.625 63.2708 22 55.1041 22 46.2375V25.4125L50 14.9125L78 25.4125V46.2375C78 55.1041 75.375 63.2708 70.125 70.7375C64.875 78.1458 58.1667 82.8708 50 84.9125ZM50 79.4875C56.7083 77.2708 62.1625 73.1 66.3625 66.975C70.6208 60.7916 72.75 53.8791 72.75 46.2375V29.0875L50 20.5125L27.25 29.0875V46.2375C27.25 53.8791 29.35 60.7916 33.55 66.975C37.8083 73.1 43.2917 77.2708 50 79.4875Z" fill="#4285F4" />
</svg>