<svg xmlns="http://www.w3.org/2000/svg" width="100.0" height="100.0" viewBox="0.0 0.0 100.0 100.0" fill="none">
<path d="M50.0891 23.8375C56.3891 23.8375 62.3099 25.1792 67.8516 27.8625C73.4516 30.5458 78.0891 34.3958 81.7641 39.4125C81.9391 39.7042 81.9974 39.9375 81.9391 40.1125C81.9391 40.2875 81.8516 40.4625 81.6766 40.6375C81.5016 40.8125 81.2682 40.9 80.9766 40.9C80.7432 40.9 80.5099 40.7542 80.2766 40.4625C76.8349 35.6792 72.4307 32.0042 67.0641 29.4375C61.7557 26.8708 56.0974 25.5875 50.0891 25.5875C44.0807 25.5875 38.4516 26.9 33.2016 29.525C27.9516 32.0917 23.5766 35.7375 20.0766 40.4625C19.8432 40.7542 19.6099 40.9292 19.3766 40.9875C19.2016 41.0458 18.9974 41.0167 18.7641 40.9C18.5307 40.7833 18.4141 40.6083 18.4141 40.375C18.4141 40.0833 18.4724 39.8208 18.5891 39.5875C22.2057 34.5708 26.7849 30.6917 32.3266 27.95C37.8682 25.2083 43.7891 23.8375 50.0891 23.8375ZM50.0891 32.2375C58.0224 32.2375 64.8182 34.8625 70.4766 40.1125C76.1932 45.3625 79.0516 51.8375 79.0516 59.5375C79.0516 62.2208 78.0599 64.4958 76.0766 66.3625C74.0932 68.2292 71.7016 69.1625 68.9016 69.1625C66.0432 69.1625 63.5932 68.2292 61.5516 66.3625C59.5099 64.4958 58.4891 62.2208 58.4891 59.5375C58.4891 57.2625 57.6432 55.3667 55.9516 53.85C54.3182 52.3333 52.3641 51.575 50.0891 51.575C47.8141 51.575 45.8307 52.3333 44.1391 53.85C42.4474 55.3667 41.6016 57.2625 41.6016 59.5375C41.6016 65.6042 43.4391 70.6792 47.1141 74.7625C50.7891 78.7875 55.3682 81.6167 60.8516 83.25C61.2016 83.3667 61.4057 83.5125 61.4641 83.6875C61.5807 83.8625 61.6099 84.0667 61.5516 84.3C61.4932 84.5917 61.3766 84.7958 61.2016 84.9125C61.0266 85.0292 60.7932 85.0292 60.5016 84.9125C54.4932 83.3958 49.5349 80.3917 45.6266 75.9C41.7766 71.4083 39.8516 65.9542 39.8516 59.5375C39.8516 56.7958 40.8432 54.4917 42.8266 52.625C44.8682 50.7583 47.2891 49.825 50.0891 49.825C52.8891 49.825 55.2807 50.7583 57.2641 52.625C59.3057 54.4917 60.3266 56.7958 60.3266 59.5375C60.3266 61.7542 61.1724 63.6208 62.8641 65.1375C64.6141 66.6542 66.6266 67.4125 68.9016 67.4125C71.1182 67.4125 73.0432 66.6542 74.6766 65.1375C76.3682 63.6208 77.2141 61.7542 77.2141 59.5375C77.2141 52.3625 74.5307 46.3542 69.1641 41.5125C63.8557 36.6708 57.4974 34.25 50.0891 34.25C42.6807 34.25 36.2932 36.6708 30.9266 41.5125C25.6182 46.3542 22.9641 52.3625 22.9641 59.5375C22.9641 60.9375 23.1099 62.775 23.4016 65.05C23.7516 67.2667 24.4516 69.8042 25.5016 72.6625C25.6182 72.9542 25.6182 73.1875 25.5016 73.3625C25.3849 73.4792 25.2391 73.5958 25.0641 73.7125C24.8307 73.8292 24.5682 73.8583 24.2766 73.8C24.0432 73.7417 23.8682 73.5667 23.7516 73.275C22.9932 71.0583 22.3807 68.8125 21.9141 66.5375C21.5057 64.2042 21.3016 61.8708 21.3016 59.5375C21.3016 52.0125 24.1599 45.5958 29.8766 40.2875C35.5932 34.9208 42.3307 32.2375 50.0891 32.2375ZM50.0891 15C53.8807 15 57.5849 15.4667 61.2016 16.4C64.8766 17.3333 68.3766 18.6458 71.7016 20.3375C71.9932 20.4542 72.1391 20.6292 72.1391 20.8625C72.1974 21.0958 72.1682 21.3 72.0516 21.475C71.9349 21.65 71.7599 21.7958 71.5266 21.9125C71.3516 22.0292 71.1182 22.0292 70.8266 21.9125C67.6182 20.3375 64.2641 19.1125 60.7641 18.2375C57.2641 17.3042 53.7057 16.8375 50.0891 16.8375C46.4724 16.8375 42.9432 17.275 39.5016 18.15C36.0599 18.9667 32.7641 20.2208 29.6141 21.9125C29.3224 22.0292 29.0891 22.0583 28.9141 22C28.7974 21.8833 28.6807 21.7375 28.5641 21.5625C28.4474 21.4458 28.3891 21.2708 28.3891 21.0375C28.3891 20.8042 28.4766 20.6292 28.6516 20.5125C31.9766 18.7042 35.4474 17.3333 39.0641 16.4C42.7391 15.4667 46.4141 15 50.0891 15ZM50.0891 41.075C55.4557 41.075 60.0641 42.8542 63.9141 46.4125C67.8224 49.9708 69.7766 54.3458 69.7766 59.5375C69.7766 59.8292 69.6891 60.0625 69.5141 60.2375C69.3974 60.3542 69.1932 60.4125 68.9016 60.4125C68.6099 60.4125 68.3766 60.3542 68.2016 60.2375C68.0266 60.0625 67.9391 59.8292 67.9391 59.5375C67.9391 54.8125 66.1599 50.8458 62.6016 47.6375C59.1016 44.4292 54.9307 42.825 50.0891 42.825C45.2474 42.825 41.0766 44.4292 37.5766 47.6375C34.1349 50.8458 32.4141 54.8125 32.4141 59.5375C32.4141 64.4958 33.2599 68.725 34.9516 72.225C36.7016 75.725 39.2682 79.225 42.6516 82.725C42.8849 82.9583 42.9724 83.1917 42.9141 83.425C42.9141 83.6 42.8266 83.775 42.6516 83.95C42.5349 84.0667 42.3307 84.1833 42.0391 84.3C41.8057 84.3583 41.5724 84.2417 41.3391 83.95C37.9557 80.45 35.3016 76.775 33.3766 72.925C31.5099 69.075 30.5766 64.6125 30.5766 59.5375C30.5766 54.3458 32.4724 49.9708 36.2641 46.4125C40.1141 42.8542 44.7224 41.075 50.0891 41.075ZM50.0016 58.575C50.2932 58.575 50.4974 58.6625 50.6141 58.8375C50.7891 59.0125 50.8766 59.2458 50.8766 59.5375C50.8766 64.2625 52.5974 68.1708 56.0391 71.2625C59.5391 74.2958 63.5641 75.8125 68.1141 75.8125C68.5807 75.8125 69.1349 75.7833 69.7766 75.725C70.4182 75.6667 71.1182 75.5792 71.8766 75.4625C72.1682 75.4042 72.4016 75.4625 72.5766 75.6375C72.7516 75.7542 72.8682 75.9 72.9266 76.075C72.9849 76.3083 72.9557 76.5125 72.8391 76.6875C72.7807 76.8625 72.6057 76.9792 72.3141 77.0375C71.2641 77.3292 70.3307 77.5042 69.5141 77.5625C68.7557 77.5625 68.2891 77.5625 68.1141 77.5625C62.9807 77.5625 58.5182 75.8708 54.7266 72.4875C50.9932 69.0458 49.1266 64.7292 49.1266 59.5375C49.1266 59.2458 49.1849 59.0125 49.3016 58.8375C49.4766 58.6625 49.7099 58.575 50.0016 58.575Z" fill="#4285F4" />
</svg>