<svg xmlns="http://www.w3.org/2000/svg" width="24.0" height="24.0" viewBox="0.0 0.0 24.0 24.0" fill="none">
<path d="M12.0232 5.23958C13.7037 5.23958 15.2697 5.60625 16.7211 6.33958C18.1878 7.05763 19.3489 8.05833 20.2044 9.34166C20.2961 9.46388 20.319 9.59375 20.2732 9.73125C20.2273 9.85347 20.151 9.95277 20.044 10.0292C19.9371 10.1056 19.8148 10.1361 19.6773 10.1208C19.5551 10.0903 19.4482 10.0139 19.3565 9.89166C18.6232 8.74583 17.5996 7.85208 16.2857 7.21041C14.9718 6.56875 13.551 6.24791 12.0232 6.24791C10.4954 6.24791 9.07457 6.56875 7.76068 7.21041C6.46207 7.85208 5.43845 8.74583 4.68984 9.89166C4.61345 10.0292 4.50651 10.1132 4.36901 10.1437C4.24679 10.159 4.12457 10.1285 4.00234 10.0521C3.8954 9.97569 3.81901 9.87638 3.77318 9.75416C3.74262 9.61666 3.77318 9.4868 3.86484 9.36458C4.70512 8.08125 5.85095 7.07291 7.30234 6.33958C8.75373 5.60625 10.3273 5.23958 12.0232 5.23958ZM12.0232 7.41666C14.0398 7.41666 15.7662 8.1118 17.2023 9.50208C18.6385 10.8771 19.3565 12.5729 19.3565 14.5896C19.3565 15.3535 19.0891 15.9951 18.5544 16.5146C18.0197 17.034 17.3628 17.2937 16.5836 17.2937C15.8197 17.2937 15.1628 17.034 14.6128 16.5146C14.0628 15.9951 13.7878 15.3535 13.7878 14.5896C13.7878 14.1007 13.6121 13.6958 13.2607 13.375C12.9246 13.0389 12.5121 12.8708 12.0232 12.8708C11.5496 12.8708 11.1371 13.0389 10.7857 13.375C10.4343 13.6958 10.2586 14.1007 10.2586 14.5896C10.2586 16.1479 10.7016 17.3854 11.5878 18.3021C12.4891 19.2035 13.5586 19.7535 14.7961 19.9521C14.9489 19.9826 15.0635 20.0514 15.1398 20.1583C15.2162 20.2653 15.2468 20.3875 15.2315 20.525C15.2162 20.6472 15.1551 20.7542 15.0482 20.8458C14.9565 20.9375 14.8343 20.9757 14.6815 20.9604C13.2148 20.7618 11.9391 20.1125 10.8544 19.0125C9.78498 17.8972 9.25026 16.4229 9.25026 14.5896C9.25026 13.8257 9.51762 13.184 10.0523 12.6646C10.5871 12.1299 11.244 11.8625 12.0232 11.8625C12.7871 11.8625 13.4364 12.1299 13.9711 12.6646C14.5211 13.184 14.7961 13.8257 14.7961 14.5896C14.7961 15.0632 14.9718 15.4681 15.3232 15.8042C15.6746 16.1403 16.0947 16.3083 16.5836 16.3083C17.0572 16.3083 17.4697 16.1403 17.8211 15.8042C18.1725 15.4681 18.3482 15.0632 18.3482 14.5896C18.3482 12.8632 17.7294 11.4042 16.4919 10.2125C15.2544 9.02083 13.7648 8.425 12.0232 8.425C10.2968 8.425 8.81484 9.02083 7.57734 10.2125C6.33984 11.4042 5.72109 12.8556 5.72109 14.5667C5.72109 14.9792 5.75929 15.4299 5.83568 15.9187C5.91207 16.3924 6.06484 16.9118 6.29401 17.4771C6.35512 17.6146 6.35512 17.7444 6.29401 17.8667C6.24818 17.9889 6.15651 18.0806 6.01901 18.1417C5.89679 18.2028 5.76693 18.2104 5.62943 18.1646C5.5072 18.1035 5.41554 18.0042 5.35443 17.8667C5.14054 17.3319 4.98012 16.7972 4.87318 16.2625C4.76623 15.7125 4.71276 15.1549 4.71276 14.5896C4.71276 12.5729 5.42318 10.8771 6.84401 9.50208C8.28012 8.1118 10.0065 7.41666 12.0232 7.41666ZM12.0232 3.01666C13.0315 3.01666 14.0093 3.14652 14.9565 3.40625C15.919 3.65069 16.828 4.00208 17.6836 4.46041C17.8211 4.5368 17.8975 4.64375 17.9128 4.78125C17.9433 4.90347 17.928 5.02569 17.8669 5.14791C17.8058 5.25486 17.7141 5.33888 17.5919 5.4C17.4697 5.44583 17.3322 5.43055 17.1794 5.35416C16.4155 4.92638 15.5905 4.60555 14.7044 4.39166C13.8336 4.1625 12.9398 4.04791 12.0232 4.04791C11.1065 4.04791 10.2128 4.15486 9.34193 4.36875C8.47109 4.58263 7.65373 4.91111 6.88984 5.35416C6.76762 5.43055 6.63776 5.45347 6.50026 5.42291C6.36276 5.37708 6.26345 5.29305 6.20234 5.17083C6.12595 5.04861 6.10304 4.92639 6.13359 4.80416C6.16415 4.68194 6.24818 4.58263 6.38568 4.50625C7.22595 4.01736 8.1197 3.65069 9.06693 3.40625C10.0294 3.14652 11.0148 3.01666 12.0232 3.01666ZM12.0232 9.63958C13.3065 9.63958 14.4294 10.075 15.3919 10.9458C16.3544 11.8167 16.8968 12.9167 17.019 14.2458C17.0343 14.3986 16.9961 14.5285 16.9044 14.6354C16.828 14.7424 16.7211 14.8035 16.5836 14.8187C16.4461 14.834 16.3239 14.8035 16.2169 14.7271C16.11 14.6354 16.0489 14.5132 16.0336 14.3604C15.9267 13.291 15.4836 12.4049 14.7044 11.7021C13.9405 10.9993 13.0468 10.6479 12.0232 10.6479C10.9079 10.6479 9.95304 11.0528 9.15859 11.8625C8.37943 12.6722 7.98984 13.6729 7.98984 14.8646C7.98984 15.8882 8.18082 16.8125 8.56276 17.6375C8.95998 18.4625 9.51762 19.2035 10.2357 19.8604C10.3426 19.9521 10.3961 20.0667 10.3961 20.2042C10.4114 20.3417 10.3732 20.4639 10.2815 20.5708C10.1898 20.6778 10.0753 20.7389 9.93776 20.7542C9.80026 20.7542 9.67804 20.7083 9.57109 20.6167C8.76137 19.8528 8.12734 18.9972 7.66901 18.05C7.21068 17.0875 6.98151 16.0257 6.98151 14.8646C6.98151 13.3979 7.4704 12.1604 8.44818 11.1521C9.42596 10.1437 10.6176 9.63958 12.0232 9.63958ZM12.0003 14.0854C12.153 14.0854 12.2753 14.1389 12.3669 14.2458C12.4586 14.3375 12.5044 14.4521 12.5044 14.5896C12.5044 15.7354 12.9093 16.6444 13.719 17.3167C14.5287 17.9736 15.453 18.3021 16.4919 18.3021C16.6142 18.3021 16.7593 18.2944 16.9273 18.2792C17.0954 18.2486 17.2635 18.2181 17.4315 18.1875C17.569 18.1569 17.6912 18.1799 17.7982 18.2562C17.9204 18.3174 17.9968 18.4243 18.0273 18.5771C18.0579 18.7146 18.035 18.8368 17.9586 18.9437C17.8822 19.0507 17.7753 19.1194 17.6378 19.15C17.3933 19.2111 17.1718 19.2569 16.9732 19.2875C16.7746 19.3028 16.6142 19.3104 16.4919 19.3104C15.0864 19.3104 13.9023 18.8597 12.9398 17.9583C11.9773 17.0569 11.4961 15.934 11.4961 14.5896C11.4961 14.4521 11.5419 14.3375 11.6336 14.2458C11.7405 14.1389 11.8628 14.0854 12.0003 14.0854Z" fill="white" />
</svg>