<svg xmlns="http://www.w3.org/2000/svg" width="100.0" height="100.0" viewBox="0.0 0.0 100.0 100.0" fill="none">
<rect width="100" height="100" fill="#19191A" />
<rect width="100" height="100" fill="url(#paint0_linear_2372_6629)" fill-opacity="0.2" />
<path d="M31.334 73.3334V31.2751L68.6673 52.3334L31.334 73.3334ZM34.834 67.3251L61.5506 52.3334L34.834 37.2834V67.3251ZM65.284 44.9834C65.284 42.1834 64.3118 39.8112 62.3673 37.8667C60.4229 35.9223 58.0507 34.9501 55.2507 34.9501C58.0507 34.9501 60.4229 33.9779 62.3673 32.0334C64.3118 30.089 65.284 27.7167 65.284 24.9167C65.284 27.7167 66.2562 30.089 68.2007 32.0334C70.1451 33.9779 72.5173 34.9501 75.3173 34.9501C72.5173 34.9501 70.1451 35.9223 68.2007 37.8667C66.2562 39.8112 65.284 42.1834 65.284 44.9834Z" fill="#5F6368" />
<path d="M31.334 73.3334V31.2751L68.6673 52.3334L31.334 73.3334ZM34.834 67.3251L61.5506 52.3334L34.834 37.2834V67.3251ZM65.284 44.9834C65.284 42.1834 64.3118 39.8112 62.3673 37.8667C60.4229 35.9223 58.0507 34.9501 55.2507 34.9501C58.0507 34.9501 60.4229 33.9779 62.3673 32.0334C64.3118 30.089 65.284 27.7167 65.284 24.9167C65.284 27.7167 66.2562 30.089 68.2007 32.0334C70.1451 33.9779 72.5173 34.9501 75.3173 34.9501C72.5173 34.9501 70.1451 35.9223 68.2007 37.8667C66.2562 39.8112 65.284 42.1834 65.284 44.9834Z" fill="url(#paint1_linear_2372_6629)" />
<defs>
<linearGradient id="paint0_linear_2372_6629" x1="50" y1="0" x2="50" y2="100" gradientUnits="userSpaceOnUse">
<stop stop-color="#19191A" stop-opacity="0" />
<stop offset="1" stop-color="#0056CF" />
</linearGradient>
<linearGradient id="paint1_linear_2372_6629" x1="35.6751" y1="64.3257" x2="64.1092" y2="36.1086" gradientUnits="userSpaceOnUse">
<stop stop-color="#446EFF" />
<stop offset="0.366609" stop-color="#2E96FF" />
<stop offset="0.832213" stop-color="#B1C5FF" />
</linearGradient>
</defs>
</svg>