<svg xmlns="http://www.w3.org/2000/svg" width="24.0" height="24.0" viewBox="0.0 0.0 24.0 24.0" fill="none">
<path d="M5.03125 20.7083V5.03333L18.9646 12.8708L5.03125 20.7083ZM6.77292 17.7292L15.4125 12.8708L6.77292 8.0125V17.7292ZM18.0021 9.98333C18.0021 8.88333 17.6125 7.94375 16.8333 7.16458C16.0542 6.38541 15.1146 5.99583 14.0146 5.99583C15.1146 5.99583 16.0542 5.61389 16.8333 4.85C17.6125 4.07083 18.0021 3.12361 18.0021 2.00833C18.0021 3.12361 18.384 4.07083 19.1479 4.85C19.9271 5.61389 20.8743 5.99583 21.9896 5.99583C20.8743 5.99583 19.9271 6.38541 19.1479 7.16458C18.384 7.94375 18.0021 8.88333 18.0021 9.98333Z" fill="white" />
</svg>