<svg xmlns="http://www.w3.org/2000/svg" width="100.0" height="100.0" viewBox="0.0 0.0 100.0 100.0" fill="none">
<path d="M50.0875 63.125C46.4125 63.125 43.2917 61.8417 40.725 59.275C38.1583 56.7083 36.875 53.6167 36.875 50C36.875 46.325 38.1583 43.2333 40.725 40.725C43.2917 38.1583 46.3833 36.875 50 36.875C53.675 36.875 56.7667 38.1583 59.275 40.725C61.8417 43.2333 63.125 46.2958 63.125 49.9125C63.125 53.5875 61.8417 56.7083 59.275 59.275C56.7667 61.8417 53.7042 63.125 50.0875 63.125ZM50 57.875C52.2167 57.875 54.0833 57.1167 55.6 55.6C57.1167 54.025 57.875 52.1583 57.875 50C57.875 47.7833 57.1167 45.9167 55.6 44.4C54.0833 42.8833 52.2458 42.125 50.0875 42.125C47.8708 42.125 45.975 42.8833 44.4 44.4C42.8833 45.9167 42.125 47.7542 42.125 49.9125C42.125 52.1292 42.8833 54.025 44.4 55.6C45.975 57.1167 47.8417 57.875 50 57.875ZM67.5875 85C68.6375 81.7333 69.4833 78.5542 70.125 75.4625C70.7667 72.3125 71.2333 69.9792 71.525 68.4625C68.55 71.8458 65.1667 74.325 61.375 75.9C57.5833 77.4167 53.7917 78.175 50 78.175C42.0667 78.175 35.0958 77.6208 29.0875 76.5125C23.1375 75.3458 18.4417 74.2667 15 73.275V67.675C18.2667 68.725 21.475 69.5708 24.625 70.2125C27.8333 70.8542 30.1958 71.3208 31.7125 71.6125C28.5042 68.9875 26.0542 65.6917 24.3625 61.725C22.6708 57.7 21.825 53.7917 21.825 50C21.825 42.0083 22.3792 35.0375 23.4875 29.0875C24.6542 23.1375 25.7333 18.4417 26.725 15H32.325C31.275 18.2667 30.4292 21.475 29.7875 24.625C29.2042 27.7167 28.7958 30.0208 28.5625 31.5375C31.3625 28.3292 34.6875 25.9083 38.5375 24.275C42.3875 22.6417 46.2083 21.825 50 21.825C57.9917 21.825 64.9625 22.4083 70.9125 23.575C76.8625 24.6833 81.5583 25.7333 85 26.725V32.325C81.7333 31.275 78.525 30.4292 75.375 29.7875C72.2833 29.1458 69.9792 28.7083 68.4625 28.475C71.7875 31.3333 74.2375 34.6875 75.8125 38.5375C77.3875 42.3875 78.175 46.2083 78.175 50C78.175 57.9917 77.5917 64.9625 76.425 70.9125C75.3167 76.8625 74.2667 81.5583 73.275 85H67.5875ZM50 72.925C56.3583 72.925 61.7542 70.7083 66.1875 66.275C70.6792 61.7833 72.925 56.3583 72.925 50C72.925 43.6417 70.6792 38.2458 66.1875 33.8125C61.7542 29.3208 56.3583 27.075 50 27.075C43.6417 27.075 38.2167 29.3208 33.725 33.8125C29.2917 38.2458 27.075 43.6417 27.075 50C27.075 56.3583 29.2917 61.7833 33.725 66.275C38.2167 70.7083 43.6417 72.925 50 72.925Z" fill="#4285F4" />
</svg>