<svg xmlns="http://www.w3.org/2000/svg" width="100.0" height="100.0" viewBox="0.0 0.0 100.0 100.0" fill="none">
<path d="M73.3625 85C74.8792 80.975 75.8708 76.8625 76.3375 72.6625C76.8625 68.4625 76.8917 64.2333 76.425 59.975C74.5 65.5167 71.1167 69.95 66.275 73.275C61.4917 76.5417 56.1542 78.175 50.2625 78.175C45.3042 78.175 40.8125 77.0083 36.7875 74.675C32.7625 72.2833 29.35 69.1333 26.55 65.225C23.75 61.3167 21.5917 56.825 20.075 51.75C18.5583 46.6167 17.8 41.3375 17.8 35.9125C17.8 32.3542 18.0333 28.825 18.5 25.325C19.025 21.7667 19.9292 18.325 21.2125 15H26.6375C25.1792 19.025 24.2167 23.1375 23.75 27.3375C23.2833 31.5375 23.225 35.7375 23.575 39.9375C25.5583 34.3375 29 29.9333 33.9 26.725C38.8 23.4583 44.2542 21.825 50.2625 21.825C55.2208 21.825 59.6542 23.0208 63.5625 25.4125C67.5292 27.7458 70.8833 30.8958 73.625 34.8625C76.425 38.7708 78.5542 43.2625 80.0125 48.3375C81.4708 53.3542 82.2 58.575 82.2 64C82.2 67.6167 81.9375 71.2042 81.4125 74.7625C80.9458 78.2625 80.0708 81.675 78.7875 85H73.3625ZM50.2625 72.75C56.6208 72.75 61.9875 70.5625 66.3625 66.1875C70.7958 61.7542 73.0125 56.3583 73.0125 50C73.0125 43.6417 70.7958 38.275 66.3625 33.9C61.9875 29.4667 56.6208 27.25 50.2625 27.25C43.9042 27.25 38.5083 29.4667 34.075 33.9C29.7 38.275 27.5125 43.6417 27.5125 50C27.5125 56.3583 29.7 61.7542 34.075 66.1875C38.5083 70.5625 43.9042 72.75 50.2625 72.75ZM50.2625 63.125C53.9375 63.125 57.0292 61.8708 59.5375 59.3625C62.1042 56.7958 63.3875 53.675 63.3875 50C63.3875 46.325 62.1042 43.2333 59.5375 40.725C57.0292 38.1583 53.9375 36.875 50.2625 36.875C46.5875 36.875 43.4667 38.1583 40.9 40.725C38.3917 43.2333 37.1375 46.325 37.1375 50C37.1375 53.675 38.3917 56.7958 40.9 59.3625C43.4667 61.8708 46.5875 63.125 50.2625 63.125ZM50.2625 57.875C48.0458 57.875 46.1792 57.1167 44.6625 55.6C43.1458 54.0833 42.3875 52.2167 42.3875 50C42.3875 47.7833 43.1458 45.9167 44.6625 44.4C46.1792 42.8833 48.0458 42.125 50.2625 42.125C52.4792 42.125 54.3458 42.8833 55.8625 44.4C57.3792 45.9167 58.1375 47.7833 58.1375 50C58.1375 52.2167 57.3792 54.0833 55.8625 55.6C54.3458 57.1167 52.4792 57.875 50.2625 57.875Z" fill="#4285F4" />
</svg>