<svg xmlns="http://www.w3.org/2000/svg" width="24.0" height="24.0" viewBox="0.0 0.0 24.0 24.0" fill="none">
<path d="M5.76562 21.9917V21.075C5.76562 18.9819 6.20104 17.2861 7.07188 15.9875C7.94271 14.6736 9.14201 13.3444 10.6698 12C9.14201 10.6556 7.94271 9.33403 7.07188 8.03541C6.20104 6.72153 5.76562 5.01041 5.76562 2.90208V2.00833H7.50729V2.90208C7.50729 3.05486 7.50729 3.2 7.50729 3.3375C7.52257 3.475 7.53785 3.6125 7.55312 3.75H16.4677C16.483 3.6125 16.4906 3.475 16.4906 3.3375C16.4906 3.2 16.4906 3.05486 16.4906 2.90208V2.00833H18.2323V2.90208C18.2323 5.01041 17.7969 6.72153 16.926 8.03541C16.0552 9.33403 14.8559 10.6556 13.3281 12C14.8559 13.3444 16.0552 14.6736 16.926 15.9875C17.7969 17.2861 18.2323 18.9819 18.2323 21.075V21.9917H16.4906V21.075C16.4906 20.9375 16.4906 20.8 16.4906 20.6625C16.4906 20.525 16.483 20.3875 16.4677 20.25H7.55312C7.53785 20.3875 7.52257 20.525 7.50729 20.6625C7.50729 20.8 7.50729 20.9375 7.50729 21.075V21.9917H5.76562ZM8.67604 7.23333H15.3448C15.5128 6.95833 15.658 6.68333 15.7802 6.40833C15.9177 6.11805 16.0399 5.8125 16.1469 5.49167H7.87396C7.96563 5.8125 8.07257 6.11805 8.19479 6.40833C8.33229 6.68333 8.49271 6.95833 8.67604 7.23333ZM11.999 10.8542C12.3656 10.5333 12.717 10.2201 13.0531 9.91458C13.3892 9.59375 13.7024 9.28055 13.9927 8.975H10.0052C10.2955 9.28055 10.6087 9.59375 10.9448 9.91458C11.2809 10.2201 11.6323 10.5333 11.999 10.8542ZM10.0052 15.025H13.9927C13.7024 14.7042 13.3892 14.391 13.0531 14.0854C12.717 13.7799 12.3656 13.4667 11.999 13.1458C11.6323 13.4667 11.2809 13.7799 10.9448 14.0854C10.6087 14.391 10.2955 14.7042 10.0052 15.025ZM7.87396 18.5083H16.1469C16.0399 18.1875 15.9177 17.8896 15.7802 17.6146C15.658 17.3243 15.5052 17.0417 15.3219 16.7667H8.67604C8.49271 17.0417 8.33229 17.3167 8.19479 17.5917C8.07257 17.8667 7.96563 18.1722 7.87396 18.5083Z" fill="white" />
</svg>