<svg xmlns="http://www.w3.org/2000/svg" width="100.0" height="100.0" viewBox="0.0 0.0 100.0 100.0" fill="none">
<path d="M31.5375 81.5L30.75 75.725L41.8625 45.1C42.5042 45.7417 43.2042 46.2667 43.9625 46.675C44.7792 47.0833 45.625 47.4333 46.5 47.725L35.7375 77.3875L31.5375 81.5ZM68.4625 81.5L64.2625 77.3875L53.325 47.8125C54.2 47.5208 55.0458 47.1708 55.8625 46.7625C56.6792 46.3542 57.4083 45.8292 58.05 45.1875L69.25 75.725L68.4625 81.5ZM50 46.5C47.0833 46.5 44.6042 45.4792 42.5625 43.4375C40.5208 41.3958 39.5 38.9167 39.5 36C39.5 33.55 40.2 31.3917 41.6 29.525C43.0583 27.6 44.9833 26.375 47.375 25.85V18.5H52.625V25.85C55.0167 26.375 56.9125 27.6 58.3125 29.525C59.7708 31.3917 60.5 33.55 60.5 36C60.5 38.9167 59.4792 41.3958 57.4375 43.4375C55.3958 45.4792 52.9167 46.5 50 46.5ZM50 41.25C51.4583 41.25 52.6833 40.7542 53.675 39.7625C54.725 38.7125 55.25 37.4583 55.25 36C55.25 34.5417 54.725 33.3167 53.675 32.325C52.6833 31.275 51.4583 30.75 50 30.75C48.5417 30.75 47.2875 31.275 46.2375 32.325C45.2458 33.3167 44.75 34.5417 44.75 36C44.75 37.4583 45.2458 38.7125 46.2375 39.7625C47.2875 40.7542 48.5417 41.25 50 41.25Z" fill="#4285F4" />
</svg>