<svg xmlns="http://www.w3.org/2000/svg" width="100.0" height="100.0" viewBox="0.0 0.0 100.0 100.0" fill="none">
<path d="M36 74.5C29.175 74.5 23.3708 72.1375 18.5875 67.4125C13.8625 62.6292 11.5 56.825 11.5 50C11.5 43.175 13.8625 37.4 18.5875 32.675C23.3708 27.8917 29.175 25.5 36 25.5C38.1 25.5 40.1125 25.7625 42.0375 26.2875C44.0208 26.7542 45.8583 27.4542 47.55 28.3875C44.1667 31.0125 41.5417 34.2208 39.675 38.0125C37.8083 41.7458 36.875 45.7417 36.875 50C36.875 54.2583 37.8083 58.2833 39.675 62.075C41.5417 65.8083 44.1667 68.9875 47.55 71.6125C45.8583 72.5458 44.0208 73.275 42.0375 73.8C40.1125 74.2667 38.1 74.5 36 74.5ZM64 74.5C61.9 74.5 59.8583 74.2667 57.875 73.8C55.95 73.275 54.1417 72.5458 52.45 71.6125C53.2083 71.0292 53.9083 70.4167 54.55 69.775C55.1917 69.1333 55.8333 68.4625 56.475 67.7625C57.6417 68.2292 58.8375 68.6083 60.0625 68.9C61.3458 69.1333 62.6583 69.25 64 69.25C69.3667 69.25 73.9167 67.3833 77.65 63.65C81.3833 59.8583 83.25 55.3083 83.25 50C83.25 44.6333 81.3833 40.0833 77.65 36.35C73.9167 32.6167 69.3667 30.75 64 30.75C62.6583 30.75 61.3458 30.8958 60.0625 31.1875C58.8375 31.4208 57.6417 31.7708 56.475 32.2375C55.8333 31.5375 55.1917 30.8667 54.55 30.225C53.9083 29.5833 53.2083 28.9708 52.45 28.3875C54.1417 27.4542 55.95 26.7542 57.875 26.2875C59.8583 25.7625 61.9 25.5 64 25.5C70.825 25.5 76.6 27.8917 81.325 32.675C86.1083 37.4 88.5 43.175 88.5 50C88.5 56.825 86.1083 62.6292 81.325 67.4125C76.6 72.1375 70.825 74.5 64 74.5ZM50 70.125C46.675 67.85 44.0792 64.9333 42.2125 61.375C40.4042 57.8167 39.5 54.025 39.5 50C39.5 45.975 40.4042 42.1833 42.2125 38.625C44.0792 35.0667 46.675 32.15 50 29.875C53.325 32.15 55.8917 35.0667 57.7 38.625C59.5667 42.1833 60.5 45.975 60.5 50C60.5 54.025 59.5667 57.8167 57.7 61.375C55.8917 64.9333 53.325 67.85 50 70.125Z" fill="#4285F4" />
</svg>