<svg xmlns="http://www.w3.org/2000/svg" width="24.0" height="24.0" viewBox="0.0 0.0 24.0 24.0" fill="none">
<path fill-rule="evenodd" clip-rule="evenodd" d="M6.1628 13.3093C7.26969 13.7862 8.24042 14.4187 9.075 15.2069C9.90958 15.9952 10.5793 16.912 11.0843 17.9574C11.1239 18.0393 11.1624 18.122 11.2 18.2056C11.7333 19.3546 12 20.5824 12 21.8889C12 20.5824 12.2583 19.3546 12.775 18.2056C12.8139 18.1217 12.8538 18.0386 12.8947 17.9564C13.4139 16.9114 14.0907 15.9949 14.925 15.2069C15.7596 14.4187 16.7303 13.7862 17.8372 13.3093C17.924 13.2719 18.0116 13.2355 18.1 13.2C19.3167 12.6963 20.6167 12.4444 22 12.4444C20.6167 12.4444 19.3167 12.2005 18.1 11.7125C18.0112 11.6757 17.9233 11.6381 17.8362 11.5995C16.7297 11.1091 15.7593 10.4699 14.925 9.68194C14.0907 8.89398 13.4139 7.9775 12.8947 6.93251C12.8538 6.85025 12.8139 6.76719 12.775 6.68333C12.2583 5.53426 12 4.30648 12 3C12 4.30648 11.7333 5.53426 11.2 6.68333C11.1624 6.76686 11.1239 6.84959 11.0843 6.93153C10.5793 7.97692 9.90958 8.89373 9.075 9.68194C8.24068 10.4699 7.27029 11.1091 6.16384 11.5995C6.07674 11.6381 5.98879 11.6757 5.9 11.7125C4.68333 12.2005 3.38333 12.4444 2 12.4444C3.38333 12.4444 4.68333 12.6963 5.9 13.2C5.98844 13.2355 6.07604 13.2719 6.1628 13.3093ZM8.01287 12.4493C8.83115 12.9091 9.57936 13.4572 10.2535 14.0939C10.9277 14.7306 11.508 15.4372 11.9949 16.2101C12.4885 15.4374 13.0722 14.7308 13.7465 14.0939C14.4206 13.4572 15.1689 12.9091 15.9871 12.4493C15.169 11.9831 14.4208 11.4319 13.7465 10.795C13.0722 10.1581 12.4885 9.45148 11.9949 8.67882C11.508 9.45164 10.9277 10.1583 10.2535 10.795C9.57917 11.4319 8.83098 11.9831 8.01287 12.4493Z" fill="white" />
</svg>