<svg xmlns="http://www.w3.org/2000/svg" width="100.0" height="100.0" viewBox="0.0 0.0 100.0 100.0" fill="none">
<path d="M22.0875 81.5C21.0375 81.0333 20.2792 80.5375 19.8125 80.0125C19.3458 79.4292 18.9083 78.6125 18.5 77.5625L77.825 18.5C78.7 18.7917 79.4583 19.2875 80.1 19.9875C80.8 20.6292 81.2667 21.4167 81.5 22.35L22.0875 81.5ZM18.5 57.175V49.65L49.65 18.5H57.175L18.5 57.175ZM18.5 29.175V23.75C18.5 22.35 19.025 21.125 20.075 20.075C21.125 19.025 22.35 18.5 23.75 18.5H29.175L18.5 29.175ZM70.825 81.5L81.5 70.825V76.25C81.5 77.65 80.975 78.875 79.925 79.925C78.875 80.975 77.65 81.5 76.25 81.5H70.825ZM42.825 81.5L81.5 42.825V50.35L50.35 81.5H42.825Z" fill="#4285F4" />
</svg>