<svg xmlns="http://www.w3.org/2000/svg" width="18.0" height="18.0" viewBox="0.0 0.0 18.0 18.0" fill="none">
<path d="M8.59277 1.71457C8.37191 2.06774 8.19422 2.45084 8.06934 2.85715H4.42871C3.16637 2.85725 2.14281 3.88097 2.14258 5.14328V13.1452C2.14282 14.4075 3.16638 15.4303 4.42871 15.4304H12.4307C13.6929 15.4301 14.7156 14.4074 14.7158 13.1452V8.71164C15.1317 8.5232 15.5159 8.27833 15.8594 7.98605V13.1452C15.8591 15.0387 14.3242 16.5737 12.4307 16.5739H4.42871C2.53509 16.5738 1.00024 15.0388 1 13.1452V5.14328C1.00023 3.24968 2.53508 1.71468 4.42871 1.71457H8.59277Z" fill="#5F6368" />
<path d="M11.0868 5.91306C11.9807 6.79233 12.4276 7.86942 12.4276 9.14436C12.4276 7.86942 12.8673 6.79233 13.7465 5.91306C14.6405 5.01914 15.7249 4.57218 16.9998 4.57218C15.7249 4.57218 14.6405 4.13255 13.7465 3.25328C12.8673 2.35936 12.4276 1.27493 12.4276 0C12.4276 1.27493 11.9807 2.35936 11.0868 3.25328C10.2075 4.13255 9.1304 4.57218 7.85547 4.57218C9.1304 4.57218 10.2075 5.01914 11.0868 5.91306Z" fill="#5F6368" />
</svg>