<svg xmlns="http://www.w3.org/2000/svg" width="100.0" height="100.0" viewBox="0.0 0.0 100.0 100.0" fill="none">
<path d="M23.75 81.5C22.35 81.5 21.125 80.975 20.075 79.925C19.025 78.875 18.5 77.65 18.5 76.25V23.75C18.5 22.35 19.025 21.125 20.075 20.075C21.125 19.025 22.35 18.5 23.75 18.5H55.25V23.75H23.75V76.25H76.25V44.75H81.5V76.25C81.5 77.65 80.975 78.875 79.925 79.925C78.875 80.975 77.65 81.5 76.25 81.5H23.75ZM28.65 67.7625L38.8875 54.4625L47.025 65.575L58.575 50.6125L71.4375 67.7625H28.65ZM69.25 49.125C69.25 43.9917 67.4708 39.6458 63.9125 36.0875C60.3542 32.5292 56.0083 30.75 50.875 30.75C56.0083 30.75 60.3542 28.9708 63.9125 25.4125C67.4708 21.8542 69.25 17.5083 69.25 12.375C69.25 17.5083 71.0292 21.8542 74.5875 25.4125C78.1458 28.9708 82.4917 30.75 87.625 30.75C82.4917 30.75 78.1458 32.5292 74.5875 36.0875C71.0292 39.6458 69.25 43.9917 69.25 49.125Z" fill="#4285F4" />
</svg>