<svg xmlns="http://www.w3.org/2000/svg" width="24.0" height="24.0" viewBox="0.0 0.0 24.0 24.0" fill="none">
<path d="M5.7651 19.975C5.29149 19.975 4.87899 19.8069 4.5276 19.4708C4.19149 19.1194 4.02344 18.7069 4.02344 18.2333V5.76666C4.02344 5.29305 4.19149 4.88819 4.5276 4.55208C4.87899 4.20069 5.29149 4.025 5.7651 4.025H13.0068V5.76666H5.7651V18.2333H18.2318V10.9917H19.9734V18.2333C19.9734 18.7069 19.7977 19.1194 19.4464 19.4708C19.1102 19.8069 18.7054 19.975 18.2318 19.975H5.7651ZM6.77344 16.4917L9.38594 13.0083L11.2422 15.4833L13.8547 12L17.2234 16.4917H6.77344ZM16.9943 12C16.9943 10.6097 16.5054 9.43333 15.5276 8.47083C14.5651 7.49305 13.3887 7.00416 11.9984 7.00416C13.3887 7.00416 14.5651 6.52291 15.5276 5.56041C16.5054 4.58264 16.9943 3.39861 16.9943 2.00833C16.9943 3.39861 17.4755 4.58264 18.438 5.56041C19.4158 6.52291 20.5998 7.00416 21.9901 7.00416C20.5998 7.00416 19.4158 7.49305 18.438 8.47083C17.4755 9.43333 16.9943 10.6097 16.9943 12Z" fill="white" />
</svg>