<svg xmlns="http://www.w3.org/2000/svg" width="100.0" height="100.0" viewBox="0.0 0.0 100.0 100.0" fill="none">
<path d="M42.125 85V22H47.375V85H42.125ZM56.9125 71V36H62.1625V71H56.9125ZM27.1625 64V43H32.4125V64H27.1625ZM69.25 60.5V46.5H74.5V60.5H69.25ZM73.8 40.9C73.8 36.875 72.3417 33.4333 69.425 30.575C66.5667 27.6583 63.125 26.2 59.1 26.2C63.125 26.2 66.5667 24.7708 69.425 21.9125C72.3417 19.0542 73.8 15.5833 73.8 11.5C73.8 15.5833 75.2292 19.0542 78.0875 21.9125C80.9458 24.7708 84.4167 26.2 88.5 26.2C84.4167 26.2 80.9458 27.6583 78.0875 30.575C75.2292 33.4333 73.8 36.875 73.8 40.9ZM12.375 56.125V50.875H17.625V56.125H12.375Z" fill="#4285F4" />
</svg>