<svg xmlns="http://www.w3.org/2000/svg" width="100.0" height="100.0" viewBox="0.0 0.0 100.0 100.0" fill="none">
<path d="M46.6768 10.2817C48.4704 9.24735 49.9246 10.0872 49.9248 12.1577V29.3862L66.6748 19.7241C68.4686 18.6896 69.9238 19.5302 69.9238 21.6011V38.5933L86.6738 28.9312C88.4674 27.897 89.9217 28.7366 89.9219 30.8071V65.9517C89.9217 68.0224 88.4674 70.5406 86.6738 71.5757L53.9717 90.4399C52.1778 91.4748 50.7238 90.6348 50.7236 88.564V71.8941L33.9219 81.2778C32.2037 82.2374 30.8146 81.4717 30.7295 79.561L30.7246 79.3726V62.5571L13.9062 71.8501C12.1394 72.8262 10.7266 71.9753 10.7266 69.9351V36.8345C9.40696 35.8307 8.55481 34.2454 8.55469 32.4605C8.55469 29.4255 11.0171 26.9644 14.0547 26.9644C14.9885 26.9644 15.8674 27.1986 16.6377 27.6089L46.6768 10.2817ZM58.5322 50.6646C58.544 50.8113 58.5527 50.9601 58.5527 51.1099C58.5525 53.2712 57.3029 55.14 55.4873 56.0376V84.0659L85.1572 66.9507V35.3062L58.5322 50.6646ZM37.8828 46.1343C37.218 46.7562 36.3995 47.2158 35.4893 47.4478V74.9019L50.7236 66.3941V56.0884C48.8506 55.2121 47.5529 53.3131 47.5527 51.1099C47.5527 50.9558 47.5598 50.8028 47.5723 50.6519L37.8828 46.1343ZM17.5869 36.6704C16.9842 37.1758 16.272 37.5544 15.4902 37.7651V65.4722L30.7246 57.0552V46.439C29.4474 45.4326 28.6261 43.8741 28.626 42.1226C28.626 42.0218 28.6284 41.9212 28.6338 41.8218L17.5869 36.6704ZM39.4893 40.9058C39.5778 41.2972 39.626 41.7044 39.626 42.1226C39.626 42.3484 39.6105 42.5709 39.584 42.7896L49.1406 47.2456C50.1377 46.2377 51.5224 45.6128 53.0527 45.6128C54.1911 45.6129 55.2485 45.9592 56.126 46.5513L65.1592 41.3413V26.0991L39.4893 40.9058ZM19.4648 31.478C19.5224 31.7968 19.5547 32.1251 19.5547 32.4605C19.5547 32.785 19.5238 33.1025 19.4697 33.4116L30.1064 38.3706C31.1102 37.297 32.5397 36.6255 34.126 36.6255C34.9643 36.6255 35.7587 36.8137 36.4697 37.1489L45.1611 32.1353V16.6567L19.4648 31.478Z" fill="#4285F4" />
</svg>