<svg xmlns="http://www.w3.org/2000/svg" width="100.0" height="100.0" viewBox="0.0 0.0 100.0 100.0" fill="none">
<path d="M60.5 84.125C59.8 84.125 59.1875 83.8625 58.6625 83.3375C58.1375 82.8125 57.875 82.2 57.875 81.5V77.9125C56.2417 77.7375 54.6958 77.3583 53.2375 76.775C51.7792 76.1917 50.4083 75.4042 49.125 74.4125L45.7125 77.825C45.1875 78.2917 44.5458 78.5542 43.7875 78.6125C43.0875 78.6125 42.475 78.35 41.95 77.825C41.425 77.3 41.1625 76.6875 41.1625 75.9875C41.1625 75.2292 41.425 74.5875 41.95 74.0625L45.45 70.65C45.1583 70.2417 44.8667 69.8333 44.575 69.425C44.3417 68.9583 44.1083 68.4917 43.875 68.025L41.1625 62.6L36.7 67.0625C36.175 67.5292 35.5333 67.7917 34.775 67.85C34.075 67.85 33.4625 67.5875 32.9375 67.0625C32.4125 66.5375 32.15 65.925 32.15 65.225C32.15 64.525 32.4125 63.9125 32.9375 63.3875L37.4 58.8375L31.975 56.125C31.5667 55.8917 31.1583 55.6875 30.75 55.5125C30.4 55.2792 30.05 55.0167 29.7 54.725L26.6375 57.7875C26.1125 58.2542 25.4708 58.5167 24.7125 58.575C24.0125 58.575 23.4 58.3125 22.875 57.7875C22.35 57.2625 22.0875 56.65 22.0875 55.95C22.0875 55.25 22.35 54.6375 22.875 54.1125L25.85 51.1375C24.8583 49.8542 24.0125 48.4542 23.3125 46.9375C22.6708 45.4208 22.2625 43.8167 22.0875 42.125H18.5C17.8 42.125 17.1875 41.8625 16.6625 41.3375C16.1375 40.8125 15.875 40.2 15.875 39.5C15.875 38.7417 16.1375 38.1292 16.6625 37.6625C17.1875 37.1375 17.8 36.875 18.5 36.875H22.2625C22.5542 35.475 22.9625 34.1333 23.4875 32.85C24.0708 31.5667 24.7708 30.3708 25.5875 29.2625L22.6125 26.2875C22.0875 25.7625 21.825 25.15 21.825 24.45C21.825 23.75 22.0875 23.1375 22.6125 22.6125C23.1375 22.0875 23.75 21.825 24.45 21.825C25.15 21.825 25.7625 22.0875 26.2875 22.6125L29.2625 25.5875C30.3708 24.7708 31.5667 24.1 32.85 23.575C34.1333 22.9917 35.475 22.5542 36.875 22.2625V18.5C36.875 17.7417 37.1375 17.1292 37.6625 16.6625C38.1875 16.1375 38.8 15.875 39.5 15.875C40.2583 15.875 40.8708 16.1375 41.3375 16.6625C41.8625 17.1292 42.125 17.7417 42.125 18.5V22.0875C43.8167 22.2625 45.4208 22.7 46.9375 23.4C48.4542 24.0417 49.8833 24.8875 51.225 25.9375L54.2 22.9625C54.725 22.4375 55.3375 22.175 56.0375 22.175C56.7958 22.175 57.4375 22.4375 57.9625 22.9625C58.4875 23.4875 58.75 24.1 58.75 24.8C58.75 25.5 58.4875 26.1125 57.9625 26.6375L54.8125 29.7875C55.0458 30.1375 55.2792 30.4875 55.5125 30.8375C55.7458 31.1875 55.95 31.5667 56.125 31.975L58.75 37.225L62.95 32.9375C63.475 32.4125 64.0875 32.15 64.7875 32.15C65.5458 32.15 66.1875 32.4125 66.7125 32.9375C67.2375 33.4625 67.5 34.1042 67.5 34.8625C67.5 35.5625 67.2375 36.175 66.7125 36.7L62.3375 40.9875L68.025 43.875C68.4917 44.1667 68.9583 44.4583 69.425 44.75C69.8917 45.0417 70.3583 45.3333 70.825 45.625L74.2375 42.2125C74.7625 41.6875 75.375 41.425 76.075 41.425C76.775 41.425 77.3875 41.6875 77.9125 42.2125C78.4375 42.7375 78.7 43.3792 78.7 44.1375C78.7 44.8375 78.4375 45.45 77.9125 45.975L74.5 49.3C75.4333 50.525 76.1917 51.8667 76.775 53.325C77.3583 54.7833 77.7375 56.3 77.9125 57.875H81.5C82.2583 57.875 82.8708 58.1375 83.3375 58.6625C83.8625 59.1292 84.125 59.7417 84.125 60.5C84.125 61.2 83.8625 61.8125 83.3375 62.3375C82.8708 62.8625 82.2583 63.125 81.5 63.125H77.7375C77.4458 64.525 77.0375 65.8667 76.5125 67.15C75.9875 68.4333 75.3167 69.6292 74.5 70.7375L77.3 73.5375C77.825 74.0625 78.0875 74.7042 78.0875 75.4625C78.0875 76.1625 77.825 76.775 77.3 77.3C76.775 77.7667 76.1333 78.0292 75.375 78.0875C74.675 78.0875 74.0625 77.825 73.5375 77.3L70.7375 74.4125C69.6292 75.2292 68.4333 75.9292 67.15 76.5125C65.8667 77.0375 64.525 77.4458 63.125 77.7375V81.5C63.125 82.2 62.8625 82.8125 62.3375 83.3375C61.8708 83.8625 61.2583 84.125 60.5 84.125ZM59.975 72.75C64 72.75 67.2667 71.2625 69.775 68.2875C72.2833 65.2542 73.2167 61.8125 72.575 57.9625C72.225 55.9208 71.4375 54.0833 70.2125 52.45C69.0458 50.8167 67.5292 49.5333 65.6625 48.6L59.8875 45.625C58.7208 44.9833 57.6708 44.1958 56.7375 43.2625C55.8042 42.3292 55.0167 41.2792 54.375 40.1125L51.4 34.3375C50.2917 32.1208 48.7167 30.4 46.675 29.175C44.6917 27.8917 42.475 27.25 40.025 27.25C36 27.25 32.7333 28.7667 30.225 31.8C27.7167 34.775 26.7833 38.1875 27.425 42.0375C27.775 44.0792 28.5333 45.9167 29.7 47.55C30.925 49.1833 32.4708 50.4667 34.3375 51.4L40.1125 54.2875C41.2792 54.9292 42.3292 55.7458 43.2625 56.7375C44.2542 57.6708 45.0708 58.7208 45.7125 59.8875L48.6 65.6625C49.7083 67.8792 51.2542 69.6292 53.2375 70.9125C55.2792 72.1375 57.525 72.75 59.975 72.75ZM41.25 44.75C42.7083 44.75 43.9333 44.2542 44.925 43.2625C45.975 42.2125 46.5 40.9583 46.5 39.5C46.5 38.0417 45.975 36.8167 44.925 35.825C43.9333 34.775 42.7083 34.25 41.25 34.25C39.7917 34.25 38.5375 34.775 37.4875 35.825C36.4958 36.8167 36 38.0417 36 39.5C36 40.9583 36.4958 42.2125 37.4875 43.2625C38.5375 44.2542 39.7917 44.75 41.25 44.75ZM58.75 66.625C59.975 66.625 60.9958 66.2167 61.8125 65.4C62.6875 64.525 63.125 63.475 63.125 62.25C63.125 61.025 62.6875 60.0042 61.8125 59.1875C60.9958 58.3125 59.975 57.875 58.75 57.875C57.525 57.875 56.475 58.3125 55.6 59.1875C54.7833 60.0042 54.375 61.025 54.375 62.25C54.375 63.475 54.7833 64.525 55.6 65.4C56.475 66.2167 57.525 66.625 58.75 66.625Z" fill="#4285F4" />
</svg>