<svg xmlns="http://www.w3.org/2000/svg" width="100.0" height="100.0" viewBox="0.0 0.0 100.0 100.0" fill="none">
<path d="M40.9875 59.0125V41.075H58.925V59.0125H40.9875ZM46.2375 53.7625H53.675V46.325H46.2375V53.7625ZM39.5 81.5V74.5H30.75C29.35 74.5 28.125 73.975 27.075 72.925C26.025 71.875 25.5 70.65 25.5 69.25V60.5H18.5V55.25H25.5V44.4H18.5V39.15H25.5V30.4C25.5 29 26.025 27.775 27.075 26.725C28.125 25.675 29.35 25.15 30.75 25.15H39.5V18.5H44.75V25.15H55.6V18.5H60.85V25.15H69.6C71 25.15 72.225 25.675 73.275 26.725C74.325 27.775 74.85 29 74.85 30.4V39.15H81.5V44.4H74.85V55.25H81.5V60.5H74.85V69.25C74.85 70.65 74.325 71.875 73.275 72.925C72.225 73.975 71 74.5 69.6 74.5H60.85V81.5H55.6V74.5H44.75V81.5H39.5ZM69.6 69.25V30.4H30.75V69.25H69.6Z" fill="#4285F4" />
</svg>