<svg xmlns="http://www.w3.org/2000/svg" width="100.0" height="100.0" viewBox="0.0 0.0 100.0 100.0" fill="none">
<path d="M22 85V21.9125L78 53.5L22 85ZM27.25 75.9875L67.325 53.5L27.25 30.925V75.9875ZM72.925 42.475C72.925 38.275 71.4667 34.7167 68.55 31.8C65.6333 28.8833 62.075 27.425 57.875 27.425C62.075 27.425 65.6333 25.9667 68.55 23.05C71.4667 20.1333 72.925 16.575 72.925 12.375C72.925 16.575 74.3833 20.1333 77.3 23.05C80.2167 25.9667 83.775 27.425 87.975 27.425C83.775 27.425 80.2167 28.8833 77.3 31.8C74.3833 34.7167 72.925 38.275 72.925 42.475Z" fill="#4285F4" />
</svg>