<svg xmlns="http://www.w3.org/2000/svg" width="24.0" height="24.0" viewBox="0.0 0.0 24.0 24.0" fill="none">
<path d="M11.999 15.7583C10.9601 15.7583 10.074 15.3917 9.34063 14.6583C8.60729 13.925 8.24063 13.0389 8.24063 12C8.24063 10.9611 8.60729 10.075 9.34063 9.34166C10.074 8.60833 10.9601 8.24166 11.999 8.24166C13.0378 8.24166 13.924 8.60833 14.6573 9.34166C15.3906 10.075 15.7573 10.9611 15.7573 12C15.7573 13.0389 15.3906 13.925 14.6573 14.6583C13.924 15.3917 13.0378 15.7583 11.999 15.7583ZM11.999 14.0167C12.5642 14.0167 13.0378 13.8181 13.4198 13.4208C13.817 13.0236 14.0156 12.55 14.0156 12C14.0156 11.4347 13.817 10.9611 13.4198 10.5792C13.0378 10.1819 12.5642 9.98333 11.999 9.98333C11.449 9.98333 10.9753 10.1819 10.5781 10.5792C10.1809 10.9611 9.98229 11.4347 9.98229 12C9.98229 12.55 10.1809 13.0236 10.5781 13.4208C10.9753 13.8181 11.449 14.0167 11.999 14.0167ZM16.4448 20.9833C16.674 20.3111 16.8497 19.6694 16.9719 19.0583C17.1094 18.4319 17.2316 17.8361 17.3385 17.2708C16.6358 17.9889 15.826 18.5465 14.9094 18.9437C13.9927 19.3257 13.0226 19.5167 11.999 19.5167C10.1809 19.5167 8.50799 19.3944 6.98021 19.15C5.46771 18.9056 4.14618 18.6229 3.01562 18.3021V16.4458C3.68785 16.6597 4.32951 16.8354 4.94063 16.9729C5.56701 17.1104 6.16285 17.225 6.72813 17.3167C6.01007 16.6292 5.45243 15.8271 5.05521 14.9104C4.67326 13.9937 4.48229 13.0236 4.48229 12C4.48229 10.1514 4.60451 8.47083 4.84896 6.95833C5.0934 5.44583 5.37604 4.13194 5.69688 3.01666H7.55313C7.32396 3.73472 7.14063 4.40694 7.00312 5.03333C6.86562 5.65972 6.75868 6.21736 6.68229 6.70625C7.36979 6.00347 8.17188 5.46111 9.08854 5.07916C10.0052 4.68194 10.9753 4.48333 11.999 4.48333C13.8476 4.48333 15.5281 4.60555 17.0406 4.85C18.5531 5.07916 19.867 5.3618 20.9823 5.69791V7.55416C20.2642 7.325 19.592 7.14166 18.9656 7.00416C18.3392 6.85139 17.7816 6.7368 17.2927 6.66041C17.9955 7.36319 18.5378 8.17291 18.9198 9.08958C19.317 10.0062 19.5156 10.9764 19.5156 12C19.5156 13.8333 19.3934 15.5062 19.149 17.0187C18.9045 18.516 18.6219 19.8375 18.301 20.9833H16.4448ZM11.999 17.775C13.6031 17.775 14.9628 17.2174 16.0781 16.1021C17.2087 14.9715 17.774 13.6042 17.774 12C17.774 10.3958 17.2087 9.03611 16.0781 7.92083C14.9628 6.79027 13.6031 6.225 11.999 6.225C10.3948 6.225 9.02743 6.79027 7.89688 7.92083C6.7816 9.03611 6.22396 10.3958 6.22396 12C6.22396 13.6042 6.7816 14.9715 7.89688 16.1021C9.02743 17.2174 10.3948 17.775 11.999 17.775Z" fill="white" />
</svg>